{
  "accessors": [
    {
      "bufferView": 2,
      "componentType": 5126,
      "count": 52071,
      "max": [
        1.2675909996032715,
        7.0213799476623535,
        -0.043060999363660812
      ],
      "min": [
        -0.65827202796936035,
        6.4001507759094238,
        -0.69137698411941528
      ],
      "type": "VEC3"
    },
    {
      "bufferView": 2,
      "byteOffset": 624852,
      "componentType": 5126,
      "count": 52071,
      "max": [
        0.99961847066879272,
        0.99999469518661499,
        0.99994522333145142
      ],
      "min": [
        -0.99977433681488037,
        -0.99994301795959473,
        -0.99991744756698608
      ],
      "type": "VEC3"
    },
    {
      "bufferView": 1,
      "componentType": 5126,
      "count": 52071,
      "max": [
        0.88907301425933838,
        0.99998700618743896
      ],
      "min": [
        6.2999999499879777e-05,
        0
      ],
      "type": "VEC2"
    },
    {
      "bufferView": 0,
      "componentType": 5125,
      "count": 299400,
      "max": [
        52070
      ],
      "min": [
        0
      ],
      "type": "SCALAR"
    }
  ],
  "asset": {
    "extras": {
      "author": "Digital Atlas of Ancient Life (https://sketchfab.com/DigitalAtlasOfAncientLife)",
      "license": "CC0-1.0 (http://creativecommons.org/publicdomain/zero/1.0/)",
      "source": "https://sketchfab.com/3d-models/fern-crenulopteris-acadica-pri-42681-467b1faa231b40a9936a4458a51a5fea",
      "title": "Fern: Crenulopteris acadica (PRI 42681)"
    },
    "generator": "Sketchfab-7.80.0",
    "version": "2.0"
  },
  "bufferViews": [
    {
      "buffer": 0,
      "byteLength": 1197600,
      "byteOffset": 0,
      "name": "floatBufferViews",
      "target": 34963
    },
    {
      "buffer": 0,
      "byteLength": 416568,
      "byteOffset": 1197600,
      "byteStride": 8,
      "name": "floatBufferViews",
      "target": 34962
    },
    {
      "buffer": 0,
      "byteLength": 1249704,
      "byteOffset": 1614168,
      "byteStride": 12,
      "name": "floatBufferViews",
      "target": 34962
    }
  ],
  "buffers": [
    {
      "byteLength": 2863872,
      "uri": "scene.bin"
    }
  ],
  "extensionsUsed": [
    "KHR_materials_unlit"
  ],
  "images": [
    {
      "uri": "textures/PRI_42681B_baseColor.jpeg"
    }
  ],
  "materials": [
    {
      "doubleSided": true,
      "emissiveFactor": [
        0,
        0,
        0
      ],
      "extensions": {
        "KHR_materials_unlit": {}
      },
      "name": "PRI_42681B",
      "pbrMetallicRoughness": {
        "baseColorFactor": [
          1,
          1,
          1,
          1
        ],
        "baseColorTexture": {
          "index": 0,
          "texCoord": 0
        },
        "metallicFactor": 0,
        "roughnessFactor": 1
      }
    }
  ],
  "meshes": [
    {
      "primitives": [
        {
          "attributes": {
            "NORMAL": 1,
            "POSITION": 0,
            "TEXCOORD_0": 2
          },
          "indices": 3,
          "material": 0,
          "mode": 4
        }
      ]
    }
  ],
  "nodes": [
    {
      "children": [
        1
      ],
      "name": "RootNode (gltf orientation matrix)",
      "rotation": [
        -0.70710678118654746,
        -0,
        -0,
        0.70710678118654757
      ]
    },
    {
      "children": [
        2
      ],
      "matrix": [
        0.97084081172943115,
        0.23492467403411865,
        -0.047733806073665619,
        0,
        0.23605784773826599,
        -0.97154134511947632,
        0.01959962397813797,
        0,
        -0.041770927608013153,
        -0.030296055600047112,
        -0.99866777658462524,
        0,
        -1.5905841588973999,
        13.147851943969727,
        -0.85093587636947632,
        1
      ],
      "name": "RootNode (model correction matrix)"
    },
    {
      "children": [
        3
      ],
      "name": "PRI_42681B.obj.cleaner.materialmerger.gles"
    },
    {
      "mesh": 0,
      "name": ""
    }
  ],
  "samplers": [
    {
      "magFilter": 9729,
      "minFilter": 9987,
      "wrapS": 10497,
      "wrapT": 10497
    }
  ],
  "scene": 0,
  "scenes": [
    {
      "name": "OSG_Scene",
      "nodes": [
        0
      ]
    }
  ],
  "textures": [
    {
      "sampler": 0,
      "source": 0
    }
  ]
}

